<mxfile host="app.diagrams.net" agent="Mozilla/5.0 (Windows NT 10.0; Win64; x64) AppleWebKit/537.36 (KHTML, like Gecko) Chrome/128.0.0.0 Safari/537.36" version="24.7.16">
  <diagram name="Page-1" id="POjWEP2f18WCFqWoDT05">
    <mxGraphModel dx="794" dy="1520" grid="1" gridSize="10" guides="1" tooltips="1" connect="1" arrows="1" fold="1" page="1" pageScale="1" pageWidth="850" pageHeight="1100" math="0" shadow="0">
      <root>
        <mxCell id="0" />
        <mxCell id="1" parent="0" />
        <mxCell id="nqFmswFfyf5B56kGS30E-1" value="Patient" style="shape=umlActor;verticalLabelPosition=bottom;verticalAlign=top;html=1;outlineConnect=0;" parent="1" vertex="1">
          <mxGeometry x="100" y="180" width="30" height="60" as="geometry" />
        </mxCell>
        <mxCell id="nqFmswFfyf5B56kGS30E-2" value="Create New Account" style="ellipse;whiteSpace=wrap;html=1;" parent="1" vertex="1">
          <mxGeometry x="290" y="90" width="120" height="60" as="geometry" />
        </mxCell>
        <mxCell id="nqFmswFfyf5B56kGS30E-3" value="" style="endArrow=none;html=1;rounded=0;" parent="1" source="nqFmswFfyf5B56kGS30E-1" target="nqFmswFfyf5B56kGS30E-2" edge="1">
          <mxGeometry width="50" height="50" relative="1" as="geometry">
            <mxPoint x="380" y="250" as="sourcePoint" />
            <mxPoint x="430" y="200" as="targetPoint" />
          </mxGeometry>
        </mxCell>
        <mxCell id="nqFmswFfyf5B56kGS30E-5" value="Add Medical Information" style="ellipse;whiteSpace=wrap;html=1;" parent="1" vertex="1">
          <mxGeometry x="500" y="10" width="120" height="60" as="geometry" />
        </mxCell>
        <mxCell id="nqFmswFfyf5B56kGS30E-7" value="Includes" style="endArrow=block;endSize=16;endFill=0;html=1;rounded=0;" parent="1" source="nqFmswFfyf5B56kGS30E-2" target="nqFmswFfyf5B56kGS30E-5" edge="1">
          <mxGeometry width="160" relative="1" as="geometry">
            <mxPoint x="330" y="220" as="sourcePoint" />
            <mxPoint x="490" y="220" as="targetPoint" />
          </mxGeometry>
        </mxCell>
        <mxCell id="nqFmswFfyf5B56kGS30E-8" value="Add Medical History" style="ellipse;whiteSpace=wrap;html=1;" parent="1" vertex="1">
          <mxGeometry x="510" y="80" width="120" height="60" as="geometry" />
        </mxCell>
        <mxCell id="nqFmswFfyf5B56kGS30E-9" value="Includes" style="endArrow=block;endSize=16;endFill=0;html=1;rounded=0;" parent="1" source="nqFmswFfyf5B56kGS30E-2" target="nqFmswFfyf5B56kGS30E-8" edge="1">
          <mxGeometry width="160" relative="1" as="geometry">
            <mxPoint x="522" y="68" as="sourcePoint" />
            <mxPoint x="408" y="112" as="targetPoint" />
          </mxGeometry>
        </mxCell>
        <mxCell id="nqFmswFfyf5B56kGS30E-10" value="Log In" style="ellipse;whiteSpace=wrap;html=1;" parent="1" vertex="1">
          <mxGeometry x="290" y="160" width="120" height="60" as="geometry" />
        </mxCell>
        <mxCell id="nqFmswFfyf5B56kGS30E-11" value="" style="endArrow=none;html=1;rounded=0;" parent="1" source="nqFmswFfyf5B56kGS30E-1" target="nqFmswFfyf5B56kGS30E-10" edge="1">
          <mxGeometry width="50" height="50" relative="1" as="geometry">
            <mxPoint x="140" y="214" as="sourcePoint" />
            <mxPoint x="312" y="148" as="targetPoint" />
          </mxGeometry>
        </mxCell>
        <mxCell id="nqFmswFfyf5B56kGS30E-12" value="Log out" style="ellipse;whiteSpace=wrap;html=1;" parent="1" vertex="1">
          <mxGeometry x="290" y="230" width="120" height="60" as="geometry" />
        </mxCell>
        <mxCell id="nqFmswFfyf5B56kGS30E-13" value="" style="endArrow=none;html=1;rounded=0;" parent="1" source="nqFmswFfyf5B56kGS30E-1" target="nqFmswFfyf5B56kGS30E-12" edge="1">
          <mxGeometry width="50" height="50" relative="1" as="geometry">
            <mxPoint x="140" y="219" as="sourcePoint" />
            <mxPoint x="301" y="205" as="targetPoint" />
          </mxGeometry>
        </mxCell>
        <mxCell id="nqFmswFfyf5B56kGS30E-14" value="Call Nurse Hotline" style="ellipse;whiteSpace=wrap;html=1;" parent="1" vertex="1">
          <mxGeometry x="290" y="310" width="120" height="60" as="geometry" />
        </mxCell>
        <mxCell id="nqFmswFfyf5B56kGS30E-15" value="" style="endArrow=none;html=1;rounded=0;" parent="1" source="nqFmswFfyf5B56kGS30E-1" target="nqFmswFfyf5B56kGS30E-14" edge="1">
          <mxGeometry width="50" height="50" relative="1" as="geometry">
            <mxPoint x="140" y="223" as="sourcePoint" />
            <mxPoint x="305" y="258" as="targetPoint" />
          </mxGeometry>
        </mxCell>
        <mxCell id="nqFmswFfyf5B56kGS30E-16" value="Nurse" style="shape=umlActor;verticalLabelPosition=bottom;verticalAlign=top;html=1;" parent="1" vertex="1">
          <mxGeometry x="720" y="200" width="30" height="60" as="geometry" />
        </mxCell>
        <mxCell id="nqFmswFfyf5B56kGS30E-17" value="" style="endArrow=none;html=1;rounded=0;" parent="1" source="nqFmswFfyf5B56kGS30E-14" target="nqFmswFfyf5B56kGS30E-16" edge="1">
          <mxGeometry width="50" height="50" relative="1" as="geometry">
            <mxPoint x="140" y="228" as="sourcePoint" />
            <mxPoint x="320" y="328" as="targetPoint" />
          </mxGeometry>
        </mxCell>
        <mxCell id="nqFmswFfyf5B56kGS30E-18" value="Register for Virtual Triage" style="ellipse;whiteSpace=wrap;html=1;" parent="1" vertex="1">
          <mxGeometry x="290" y="380" width="120" height="60" as="geometry" />
        </mxCell>
        <mxCell id="nqFmswFfyf5B56kGS30E-19" value="" style="endArrow=none;html=1;rounded=0;" parent="1" source="nqFmswFfyf5B56kGS30E-1" target="nqFmswFfyf5B56kGS30E-18" edge="1">
          <mxGeometry width="50" height="50" relative="1" as="geometry">
            <mxPoint x="140" y="228" as="sourcePoint" />
            <mxPoint x="320" y="328" as="targetPoint" />
          </mxGeometry>
        </mxCell>
        <mxCell id="nqFmswFfyf5B56kGS30E-20" value="Enter Symptoms" style="ellipse;whiteSpace=wrap;html=1;" parent="1" vertex="1">
          <mxGeometry x="490" y="310" width="120" height="60" as="geometry" />
        </mxCell>
        <mxCell id="nqFmswFfyf5B56kGS30E-21" value="Includes" style="endArrow=block;endSize=16;endFill=0;html=1;rounded=0;" parent="1" source="nqFmswFfyf5B56kGS30E-18" target="nqFmswFfyf5B56kGS30E-20" edge="1">
          <mxGeometry width="160" relative="1" as="geometry">
            <mxPoint x="320" y="310" as="sourcePoint" />
            <mxPoint x="480" y="430" as="targetPoint" />
          </mxGeometry>
        </mxCell>
        <mxCell id="nqFmswFfyf5B56kGS30E-22" value="View Waitlist" style="ellipse;whiteSpace=wrap;html=1;" parent="1" vertex="1">
          <mxGeometry x="280" y="450" width="120" height="60" as="geometry" />
        </mxCell>
        <mxCell id="nqFmswFfyf5B56kGS30E-23" value="" style="endArrow=none;html=1;rounded=0;" parent="1" source="nqFmswFfyf5B56kGS30E-1" target="nqFmswFfyf5B56kGS30E-22" edge="1">
          <mxGeometry width="50" height="50" relative="1" as="geometry">
            <mxPoint x="140" y="233" as="sourcePoint" />
            <mxPoint x="331" y="404" as="targetPoint" />
          </mxGeometry>
        </mxCell>
        <mxCell id="nqFmswFfyf5B56kGS30E-24" value="Get Waitlist" style="ellipse;whiteSpace=wrap;html=1;" parent="1" vertex="1">
          <mxGeometry x="480" y="380" width="120" height="60" as="geometry" />
        </mxCell>
        <mxCell id="nqFmswFfyf5B56kGS30E-25" value="Includes" style="endArrow=block;endSize=16;endFill=0;html=1;rounded=0;" parent="1" source="nqFmswFfyf5B56kGS30E-22" target="nqFmswFfyf5B56kGS30E-24" edge="1">
          <mxGeometry width="160" relative="1" as="geometry">
            <mxPoint x="513" y="369" as="sourcePoint" />
            <mxPoint x="430" y="430" as="targetPoint" />
          </mxGeometry>
        </mxCell>
        <mxCell id="nqFmswFfyf5B56kGS30E-26" value="Mister ED" style="shape=umlFrame;whiteSpace=wrap;html=1;pointerEvents=0;" parent="1" vertex="1">
          <mxGeometry x="170" y="-80" width="530" height="710" as="geometry" />
        </mxCell>
        <mxCell id="nqFmswFfyf5B56kGS30E-27" value="View Virtual Triage Response" style="ellipse;whiteSpace=wrap;html=1;" parent="1" vertex="1">
          <mxGeometry x="240" y="520" width="120" height="60" as="geometry" />
        </mxCell>
        <mxCell id="nqFmswFfyf5B56kGS30E-28" value="" style="endArrow=none;html=1;rounded=0;" parent="1" source="nqFmswFfyf5B56kGS30E-1" target="nqFmswFfyf5B56kGS30E-27" edge="1">
          <mxGeometry width="50" height="50" relative="1" as="geometry">
            <mxPoint x="140" y="239" as="sourcePoint" />
            <mxPoint x="338" y="492" as="targetPoint" />
          </mxGeometry>
        </mxCell>
        <mxCell id="nqFmswFfyf5B56kGS30E-29" value="Get Virtual Triage Response" style="ellipse;whiteSpace=wrap;html=1;" parent="1" vertex="1">
          <mxGeometry x="460" y="510" width="120" height="60" as="geometry" />
        </mxCell>
        <mxCell id="nqFmswFfyf5B56kGS30E-30" value="Includes" style="endArrow=block;endSize=16;endFill=0;html=1;rounded=0;" parent="1" source="nqFmswFfyf5B56kGS30E-27" target="nqFmswFfyf5B56kGS30E-29" edge="1">
          <mxGeometry width="160" relative="1" as="geometry">
            <mxPoint x="416" y="509" as="sourcePoint" />
            <mxPoint x="504" y="491" as="targetPoint" />
          </mxGeometry>
        </mxCell>
        <mxCell id="nqFmswFfyf5B56kGS30E-31" value="View Nearby Hospitals" style="ellipse;whiteSpace=wrap;html=1;" parent="1" vertex="1">
          <mxGeometry x="270" width="120" height="60" as="geometry" />
        </mxCell>
        <mxCell id="nqFmswFfyf5B56kGS30E-32" value="" style="endArrow=none;html=1;rounded=0;" parent="1" source="nqFmswFfyf5B56kGS30E-1" target="nqFmswFfyf5B56kGS30E-31" edge="1">
          <mxGeometry width="50" height="50" relative="1" as="geometry">
            <mxPoint x="400" y="480" as="sourcePoint" />
            <mxPoint x="450" y="430" as="targetPoint" />
          </mxGeometry>
        </mxCell>
        <mxCell id="nqFmswFfyf5B56kGS30E-33" value="View Hospital Waitimes" style="ellipse;whiteSpace=wrap;html=1;" parent="1" vertex="1">
          <mxGeometry x="480" y="-70" width="120" height="60" as="geometry" />
        </mxCell>
        <mxCell id="nqFmswFfyf5B56kGS30E-34" value="Extends" style="endArrow=block;endSize=16;endFill=0;html=1;rounded=0;" parent="1" source="nqFmswFfyf5B56kGS30E-33" target="nqFmswFfyf5B56kGS30E-31" edge="1">
          <mxGeometry width="160" relative="1" as="geometry">
            <mxPoint x="522" y="68" as="sourcePoint" />
            <mxPoint x="408" y="112" as="targetPoint" />
          </mxGeometry>
        </mxCell>
        <mxCell id="nqFmswFfyf5B56kGS30E-35" value="Leave Waitlist" style="ellipse;whiteSpace=wrap;html=1;" parent="1" vertex="1">
          <mxGeometry x="480" y="440" width="120" height="60" as="geometry" />
        </mxCell>
        <mxCell id="nqFmswFfyf5B56kGS30E-36" value="Extends" style="endArrow=block;endSize=16;endFill=0;html=1;rounded=0;" parent="1" source="nqFmswFfyf5B56kGS30E-35" target="nqFmswFfyf5B56kGS30E-22" edge="1">
          <mxGeometry width="160" relative="1" as="geometry">
            <mxPoint x="520" y="123" as="sourcePoint" />
            <mxPoint x="420" y="127" as="targetPoint" />
          </mxGeometry>
        </mxCell>
      </root>
    </mxGraphModel>
  </diagram>
</mxfile>
